# xmcd
#
# Track frame offsets: 
#        150
#        13208
#        24255
#        35636
#        45686
#        56920
#        69701
#        79150
#        88136
#        102060
#        112543
#        124659
#        137046
#        149876
#        159131
#        168494
#        184028
#        194715
#        203280
#        214145
#
# Disc length: 3042 seconds
#
# Revision: 2
# Processed by: cddbd v1.5.2PL0 Copyright (c) Steve Scherf et al.
# Submitted via: ExactAudioCopy v1.1
#
DISCID=1b0be014
DTITLE=Various Artist - Sun Records. The Essential Collection (disc_1
DTITLE=)
DYEAR=2010
DGENRE=Rock 'N' Roll
TTITLE0=Jerry Lee Lewis - Whole lotta shakin' goin' on
TTITLE1=Carl Perkins - Dixie Fried
TTITLE2=Billy Lee Riley - Red Hot
TTITLE3=Roy Orbinson - Ooby Dooby
TTITLE4=Carl Mann - Mona Lisa
TTITLE5=Jackie Brenston  - Rocket 88
TTITLE6=Charlie Rich - Whirlwind
TTITLE7=Warren Smith - Ubangi Stomp
TTITLE8=Rosco Gordon - Booted!
TTITLE9=The Jones Brothers - Gospel Train
TTITLE10=The Prisonairs - Just walkin' in the Rain
TTITLE11=Million Dollar Quartet  - Walk that lonesome Valley
TTITLE12=Malcolm Yelvington - Drinkin' Wine Spo-dee-o-dee
TTITLE13=Roy Orbison - Rockhouse
TTITLE14=Billy Lee Riley - Flying Saucers Rock'n Roll
TTITLE15=The Five Tinos - Sitting by my Window
TTITLE16=Bill Justis - Raunchy
TTITLE17=Jerry Lee Lewis - Great Balls of Fire
TTITLE18=Million Dollar Quartet - Don't be cruel
TTITLE19=Billy "the Kid" Emerson - When it rains it pours
EXTD=
EXTT0=
EXTT1=
EXTT2=
EXTT3=
EXTT4=
EXTT5=
EXTT6=
EXTT7=
EXTT8=
EXTT9=
EXTT10=
EXTT11=
EXTT12=
EXTT13=
EXTT14=
EXTT15=
EXTT16=
EXTT17=
EXTT18=
EXTT19=
PLAYORDER=
